<?xml version="1.0" encoding="utf-8"?>
<!-- Generator: Adobe Illustrator 21.0.2, SVG Export Plug-In . SVG Version: 6.00 Build 0)  -->
<svg version="1.1" id="Layer_1" xmlns="http://www.w3.org/2000/svg" xmlns:xlink="http://www.w3.org/1999/xlink" x="0px" y="0px"
	 viewBox="0 0 100 100" style="enable-background:new 0 0 100 100;" xml:space="preserve">
<path d="M95,64.6c0-0.1,0-0.1-0.1-0.2c0,0,0-0.1-0.1-0.2c-0.1-0.1-0.1-0.2-0.2-0.3L69.4,26.4c1-1.2,1.6-2.8,1.6-4.4
	c0-3.2-2.1-5.8-5-6.7V7c0-1.1-0.9-2-2-2s-2,0.9-2,2v8.3c-2.9,0.9-5,3.5-5,6.7c0,1.7,0.6,3.2,1.6,4.4L33.9,63H33V7c0-1.1-0.9-2-2-2
	H11C9.9,5,9,5.9,9,7v56H7c-1.1,0-2,0.9-2,2v8c0,1.1,0.9,2,2,2h2v6c0,1.1,0.9,2,2,2h0.9l7.4,11.1c0.4,0.6,1,0.9,1.7,0.9
	s1.3-0.3,1.7-0.9L30.1,83H31c1.1,0,2-0.9,2-2v-6h2c1.1,0,2-0.9,2-2v-7.4l24.9-36.9c0.7,0.2,1.4,0.3,2.1,0.3s1.4-0.1,2.1-0.3L91,65.6
	V93c0,1.1,0.9,2,2,2s2-0.9,2-2V65C95,64.9,95,64.7,95,64.6z M13,9h16v8H13V9z M13,21h16v4H13V21z M13,29h16v34H13V29z M21,89.4
	L16.7,83h8.5L21,89.4z M29,79H13c0,0,0,0,0,0v-4h16V79z M33,71H9v-4h24V71z M64,25c-1.7,0-3-1.4-3-3c0-1.7,1.3-3,3-3s3,1.3,3,3
	C67,23.6,65.7,25,64,25z"/>
</svg>
